<?xml version="1.0" encoding="utf-8"?>
<!-- Generator: Adobe Illustrator 24.3.0, SVG Export Plug-In . SVG Version: 6.00 Build 0)  -->
<svg version="1.1" id="Слой_1" xmlns="http://www.w3.org/2000/svg" xmlns:xlink="http://www.w3.org/1999/xlink" x="0px" y="0px"
	 viewBox="0 0 350 368.3" style="enable-background:new 0 0 350 368.3;" xml:space="preserve">
<style type="text/css">
	.st0{fill:#205D97;}
	.st1{fill:none;}
</style>
<g id="Page-1" transform="translate(1)">
	<g id="_091---Search-File" transform="translate(0 0)">
		<g id="Shape">
			<path class="st0" d="M-1,144.8v187C-1.1,348.5,12.3,362,28.9,362h221.5c7.9,0,15.6-3.2,21.1-8.8c2.3-2.4,2.2-6.1-0.1-8.5
				c-2.3-2.3-6-2.4-8.4-0.1c-3.3,3.4-7.9,5.3-12.7,5.3H28.9c-10,0-18-8.1-17.9-18.1c0,0,0,0,0,0V147.6l72.3-63.9
				C95.8,72.5,97,53.4,85.9,40.8c-1-1.2-2.1-2.2-3.3-3.2L51.6,12.1h198.7c10,0,18,8.1,17.9,18.1c0,0,0,0,0,0v84.5
				c-0.1,3.3,2.5,6.1,5.8,6.2c3.3,0.1,6.1-2.5,6.2-5.8c0-0.1,0-0.3,0-0.4V30.2c0.1-16.6-13.3-30.1-29.9-30.2H34.9
				C32,0,29.6,2,29,4.7L-0.9,143.5C-1,144-1,144.4-1,144.8z M38.6,16.9l36.3,30c7.7,6.4,8.8,17.9,2.4,25.6c-0.6,0.7-1.2,1.4-1.9,2
				l-60.8,53.7L38.6,16.9z"/>
		</g>
		<g id="Shape-2">
			<path class="st0" d="M132.3,56.2c3.5,0,6.2-2.8,6.2-6.2c0-3.5-2.8-6.2-6.2-6.2h-12.5c-3.5,0-6.2,2.8-6.2,6.2
				c0,3.5,2.8,6.2,6.2,6.2H132.3z"/>
		</g>
		<g id="Shape-3">
			<path class="st0" d="M241.9,43.7h-87.5c-3.5,0-6.2,2.8-6.2,6.2c0,3.5,2.8,6.2,6.2,6.2h87.5c3.5,0,6.2-2.8,6.2-6.2
				C248.1,46.5,245.3,43.7,241.9,43.7z"/>
		</g>
		<g id="Shape-4">
			<path class="st0" d="M107.4,84.6c0,3.5,2.8,6.2,6.2,6.2h25c3.5,0,6.2-2.8,6.2-6.2c0-3.5-2.8-6.2-6.2-6.2h-25
				C110.2,78.3,107.4,81.1,107.4,84.6z"/>
		</g>
		<g id="Shape-5">
			<path class="st0" d="M241.7,78.3h-81.2c-3.5,0-6.2,2.8-6.2,6.2c0,3.5,2.8,6.2,6.2,6.2h81.2c3.5,0,6.2-2.8,6.2-6.2
				C248,81.1,245.2,78.3,241.7,78.3z"/>
		</g>
		<g id="Shape-6">
			<path class="st0" d="M289.9,273.8L273.1,257c28.1-47.6,12.2-109-35.4-137.1s-109-12.2-137.1,35.4s-12.2,109,35.4,137.1
				c31.4,18.5,70.3,18.5,101.7,0l16.8,16.8c-1.2,4.3,0.1,8.9,3.2,12l39.8,39.8c9.8,9.8,25.6,9.8,35.4,0c0,0,0,0,0,0l8.8-8.8
				c9.8-9.8,9.8-25.6,0-35.3L301.9,277C298.8,273.9,294.2,272.7,289.9,273.8z M125.1,268.2C91,234,91,178.6,125.1,144.5
				s89.6-34.2,123.7,0c34.2,34.2,34.2,89.6,0,123.7C214.7,302.4,159.3,302.4,125.1,268.2C125.1,268.2,125.1,268.2,125.1,268.2z
				 M257.7,277.1c2.9-3,5.7-6.1,8.2-9.5l13.9,13.9l-8.8,8.8l-8.8,8.8l-13.9-13.9C251.6,282.7,254.7,280,257.7,277.1L257.7,277.1z
				 M336.5,334.5c0,3.3-1.3,6.5-3.7,8.8l-8.8,8.8c-4.9,4.7-12.7,4.7-17.7,0l-39.8-39.8l26.5-26.5l39.8,39.8
				C335.2,328,336.5,331.2,336.5,334.5z"/>
		</g>
		<g id="Эллипс_73" transform="translate(17.3 21)">
			<g>
				<circle class="st1" cx="171.1" cy="185.2" r="75"/>
			</g>
			<g>
				<path class="st0" d="M171.1,260.2c-41.4,0-75-33.6-75-75c0-41.4,33.6-75,75-75c41.4,0,75,33.6,75,75
					C246.1,226.6,212.4,260.2,171.1,260.2z M171.1,122.7c-34.5,0-62.5,28-62.5,62.5c0,34.5,28,62.5,62.5,62.5
					c34.5,0,62.5-28,62.5-62.5C233.6,150.8,205.5,122.7,171.1,122.7z"/>
			</g>
		</g>
	</g>
</g>
</svg>
