<?xml version="1.0" encoding="utf-8"?>
<!-- Generator: Adobe Illustrator 24.3.0, SVG Export Plug-In . SVG Version: 6.00 Build 0)  -->
<svg version="1.1" id="Слой_1" xmlns="http://www.w3.org/2000/svg" xmlns:xlink="http://www.w3.org/1999/xlink" x="0px" y="0px"
	 viewBox="0 0 439.9 414.9" style="enable-background:new 0 0 439.9 414.9;" xml:space="preserve">
<style type="text/css">
	.st0{fill:#050505;}
</style>
<g>
	<path class="st0" d="M378.5,197.3l0.1-4.3c0-0.9,0.1-1.8,0.1-2.7v-0.1c-0.1-22-14.6-41.4-35.8-47.7V20.4
		c0.5-8.6-4.5-16.4-12.8-19.7c-8.3-2.4-16.8,1.9-19.8,9.6c-19.6,42.7-56.3,75.7-101,90.5c-20.3,7.2-41.4,10.5-63,10H71
		c-39.1,0.1-71,38.1-71,84.6c0,42.8,26.3,78.4,61.6,83.8l21.8,107.8c1.9,15.1,14.3,26.8,29.7,27.8h15.6c10-0.2,19-5.5,24.1-14
		c5.8-9.1,7.7-19.9,5.5-30.3L140,280h4.6c0.8,0.1,1.6,0.1,1.7,0c21.4-0.5,42.6,2.9,63,10c44.5,14.8,81.3,47.8,100.8,90.4
		c2.5,6.1,8.4,10.2,15.2,10.5c1.6,0,3.2-0.3,5-0.8c7.9-3.2,13-11.1,12.5-19.4V248.4C365.2,241.7,380.1,220.6,378.5,197.3z
		 M342.8,170.1c8.2,4.7,13.2,13.7,12.7,23.5l0.1,3.8c0.6,9.7-4.5,18.6-12.7,23.3V170.1z M319.8,42.9v305.3
		c-23.8-39.2-60.4-68.6-104.3-83.4c-18.8-6.4-38.3-10.1-58.1-10.9V137.1c19.8-0.9,39.3-4.5,58.1-10.9
		C259.5,111.5,296,82.1,319.8,42.9z M136,376.6c0.6,3,0.1,6-1.6,8.7c-1.2,2-3.3,3.3-5.6,3.4l-15.5,0c-3.8-0.3-6.9-3.2-7.5-7.2
		L85.5,280.1h30.8l9.1,44.7h0L136,376.6z M134.3,137.1v92.7l0,0v23.9H70.7c-26.3-0.2-47.7-26.3-47.7-58.3
		c0-32.1,21.5-58.3,47.9-58.3H134.3z"/>
	<path class="st0" d="M378.7,150.6L378.7,150.6L378.7,150.6c3.9,0,7.6-1.5,10.4-4l34.7-31.7c6.3-5.7,6.8-15.6,1.1-21.9
		c-5.8-6.3-15.5-6.8-21.9-1.1l-34.7,31.7c-3.1,2.8-4.9,6.6-5.1,10.8c-0.2,4.2,1.2,8.1,4,11.2C370.2,148.8,374.3,150.6,378.7,150.6z"
		/>
	<path class="st0" d="M389.1,245L389.1,245c-3.1-2.8-7.1-4.2-11.2-4c-4.2,0.2-8,2-10.7,5.1c-5.7,6.3-5.2,16.2,1.1,21.9l34.7,31.8
		c2.9,2.6,6.5,4,10.4,4c8.6,0,15.5-7,15.5-15.6c0-4.4-1.9-8.5-5.1-11.4L389.1,245z"/>
	<path class="st0" d="M424.7,180.1H398c-8.6,0-15.5,7-15.5,15.5c0,8.6,7,15.5,15.5,15.5h26.7c8.6,0,15.5-7,15.5-15.5
		C440.2,187.1,433.3,180.1,424.7,180.1z"/>
</g>
</svg>
