<?xml version="1.0" encoding="utf-8"?>
<!-- Generator: Adobe Illustrator 24.3.0, SVG Export Plug-In . SVG Version: 6.00 Build 0)  -->
<svg version="1.1" id="Слой_1" xmlns="http://www.w3.org/2000/svg" xmlns:xlink="http://www.w3.org/1999/xlink" x="0px" y="0px"
	 viewBox="0 0 360.3 307.7" style="enable-background:new 0 0 360.3 307.7;" xml:space="preserve">
<path d="M357.5,271.2c-1.9-2-4.5-3.2-7.2-3.3l-1.9,0.1c-11.9,0.1-23.6,4.1-33.1,11.3c-6.3,5-14.2,7.8-22.4,7.4h-2l24.1-80.6
	c1.6-4.1,0.3-8.9-3.3-11.7l-33-23.7V98.8c-0.4-18.7-15.4-33.9-34.2-34.5h-31V16c0-8.5-5.1-14.3-12.8-14.3h-41.4
	c-7.6,0-12.8,5.7-12.8,14.3v48.4h-31C96.9,65,82,80.1,81.5,98.9v71.8l-33.1,23.8c-3.4,2.7-4.8,7.2-3.6,11.4l24.6,80.4H67
	c-8.2,0.4-15.8-2.5-22-7.5c-9.8-7.5-21.9-11.4-34.1-11.3c-2.9,0-5.5,0.9-7.5,2.8c-2,1.9-3.2,4.5-3.3,7.3c-0.1,2.8,0.9,5.5,2.8,7.5
	c1.9,2,4.5,3.2,7.2,3.3h0.8c8.1-0.2,16,2.4,22.4,7.4c9.6,7.6,21.7,11.9,33.9,11.7c12.6,0.2,24.5-3.9,34.3-11.4
	c6.2-5,13.9-7.8,22.1-7.4c8.2-0.2,16,2.4,22.4,7.5c9.7,7.5,21.6,11.2,33.8,11.3c12.6,0.2,24.5-3.8,34.3-11.3
	c13.1-9.9,31.5-9.9,44.6,0c10.2,7.6,22.2,11.3,34.2,11.3c12,0,24-3.8,34.3-11.4c6.3-5,14.3-7.8,22.3-7.4c5.5,0,10.6-4.3,10.8-10
	C360.4,275.9,359.4,273.2,357.5,271.2z M167.6,64.3V22.6h25.1l0,41.7H167.6z M293.1,206.9l-22.1,72.5l-0.7-0.4
	c-9.5-7.2-21.3-11.2-33.2-11.2c-0.5,0-1.1,0-1.6,0c-11.9,0-23.7,4-33.2,11.3c-3.4,2.7-7.4,4.7-11.6,6V134.5l69.6,49.2
	c0.7,0.9,1.6,1.5,2.6,2L293.1,206.9z M174,105.8L102.4,156V99c0.3-7.4,6.1-13.3,13.3-13.8l128.6,0c7.4,0.5,13.2,6.4,13.5,13.7V156
	l-71.2-50.3C182.8,103.4,177.8,103.3,174,105.8z M89.3,279.3l-22.1-72.3l102.5-72.4l0,150.6c-4.3-1.3-8.4-3.3-12-6
	c-9.6-7.3-21.5-11.3-33.4-11.3c-0.3,0-0.5,0-0.8,0c-12.2,0-24.3,3.8-33.8,11.2L89.3,279.3z"/>
</svg>
