<?xml version="1.0" encoding="utf-8"?>
<!-- Generator: Adobe Illustrator 24.3.0, SVG Export Plug-In . SVG Version: 6.00 Build 0)  -->
<svg version="1.1" id="Слой_1" xmlns="http://www.w3.org/2000/svg" xmlns:xlink="http://www.w3.org/1999/xlink" x="0px" y="0px"
	 viewBox="0 0 379 368.3" style="enable-background:new 0 0 379 368.3;" xml:space="preserve">
<path id="Контур_8" d="M365,349.5l-89.5-89.5c56.9-65.5,50-164.6-15.5-221.5S95.4-11.4,38.5,54s-50,164.6,15.5,221.5
	c59.1,51.4,147,51.4,206,0l89.5,89.5c2.1,2.1,4.8,3.2,7.8,3.3c2.9,0,5.7-1.2,7.8-3.3c7.1,0,12.8-0.7,12.8-7.8
	C377.8,350.2,372.1,344.5,365,349.5z M22.1,157.1C22.1,82.6,82.5,22.2,157,22.2s134.9,60.4,134.9,134.9
	c0,74.5-60.4,134.9-134.9,134.9c0,0,0,0,0,0C82.6,291.9,22.3,231.6,22.1,157.1L22.1,157.1z"/>
</svg>
