<?xml version="1.0" encoding="utf-8"?>
<!-- Generator: Adobe Illustrator 24.3.0, SVG Export Plug-In . SVG Version: 6.00 Build 0)  -->
<svg version="1.1" id="Слой_1" xmlns="http://www.w3.org/2000/svg" xmlns:xlink="http://www.w3.org/1999/xlink" x="0px" y="0px"
	 viewBox="0 0 321 362.5" style="enable-background:new 0 0 321 362.5;" xml:space="preserve">
<style type="text/css">
	.st0{fill:#81AEDA;}
</style>
<g id="Icon_awesome-user-minus">
	<path class="st0" d="M46.4,362.5C20.8,362.5,0,341.6,0,316.1v-27c0-56.4,46-102.4,102.4-102.4l17.3,1.4c26,12,55.8,12,81.7,0
		l6.4-1.4h10.7c56.4,0,102.3,45.9,102.3,102.4v27c0,25.5-20.7,46.3-46.3,46.4H46.4z M102.4,217.3c-39.6,0-71.8,32.2-71.8,71.8v27
		c0,8.7,7.1,15.8,15.8,15.8h228.2c8.7,0,15.8-7.1,15.8-15.8v-27c0-39.6-32.2-71.8-71.8-71.9v0.1h-7.5c-32.3,13.8-68.7,13.8-101,0
		H102.4z M160.5,196.5c-54.2,0-98.3-44.1-98.3-98.3C62.2,44.1,106.3,0,160.5,0s98.3,44.1,98.3,98.3
		C258.8,152.5,214.7,196.5,160.5,196.5z M160.5,30.6c-37.3,0-67.7,30.4-67.7,67.7c0,37.3,30.4,67.7,67.7,67.7
		c37.3,0,67.7-30.4,67.7-67.7C228.2,60.9,197.8,30.6,160.5,30.6z"/>
</g>
</svg>
