<?xml version="1.0" encoding="utf-8"?>
<!-- Generator: Adobe Illustrator 24.3.0, SVG Export Plug-In . SVG Version: 6.00 Build 0)  -->
<svg version="1.1" id="Слой_1" xmlns="http://www.w3.org/2000/svg" xmlns:xlink="http://www.w3.org/1999/xlink" x="0px" y="0px"
	 viewBox="0 0 515 287.4" style="enable-background:new 0 0 515 287.4;" xml:space="preserve">
<style type="text/css">
	.st0{fill:#7CADDC;}
</style>
<g id="Vector_Smart_Object_копия_6" transform="translate(-1292.924 -367)">
	<g id="Vector_Smart_Object_копия_6-2" transform="matrix(0, 1, -1, 0, 1306.733, 363.545)">
		<g id="Сгруппировать_556">
			<path id="Контур_49" class="st0" d="M35.8,8.5C29.3,15,18,15.6,10.6,9.9C10,9.4,9.5,9,9,8.5C1.6,1.1,1.6-9.9,9-17.3
				L245-243.7L9-470.1c-7.4-7.3-7.4-18.4,0-25.8c6.5-6.5,17.8-7.2,25.3-1.4c0.6,0.4,1.1,0.9,1.6,1.4l249.5,239.3
				c7.4,7.3,7.4,18.4,0,25.8L35.8,8.5z"/>
		</g>
	</g>
	<path id="Color_Overlay" class="st0" d="M1537.5,648.9l-239.3-249.5c-6.5-6.5-7.1-17.8-1.4-25.3c0.4-0.6,0.9-1.1,1.4-1.6
		c7.3-7.4,18.4-7.4,25.7,0l226.4,236.1l226.4-236.1c7.4-7.4,18.4-7.4,25.8,0c6.5,6.5,7.1,17.8,1.4,25.3c-0.4,0.6-0.9,1.1-1.4,1.6
		l-239.3,249.5C1555.9,656.3,1544.8,656.3,1537.5,648.9L1537.5,648.9z"/>
</g>
</svg>
