<?xml version="1.0" encoding="utf-8"?>
<!-- Generator: Adobe Illustrator 24.3.0, SVG Export Plug-In . SVG Version: 6.00 Build 0)  -->
<svg version="1.1" id="Слой_1" xmlns="http://www.w3.org/2000/svg" xmlns:xlink="http://www.w3.org/1999/xlink" x="0px" y="0px"
	 viewBox="0 0 329 329" style="enable-background:new 0 0 329 329;" xml:space="preserve">
<style type="text/css">
	.st0{fill:#7CADDC;}
</style>
<g id="Векторный_смарт-объект" transform="translate(105 105)">
	<g id="Сгруппировать_346" transform="translate(-105 -105)">
		<circle id="Эллипс_33" class="st0" cx="239.7" cy="120.9" r="16"/>
		<path id="Контур_504" class="st0" d="M277.1,26.2h-16.7V13.4c0.3-7.1-5.2-13.1-12.3-13.3c-7.1-0.3-13.1,5.2-13.3,12.3
			c0,0.3,0,0.7,0,1v12.8h-58.4V13.4C176.1,6.3,170.1,0.8,163,1c-6.7,0.3-12,5.6-12.3,12.3v12.8H93V13.4C93.3,6.3,87.8,0.3,80.7,0
			S67.6,5.2,67.4,12.3c0,0.3,0,0.7,0,1v12.8H51.3C23,26.3,0,49.2,0,77.5v200.2c0.1,28.3,23,51.2,51.3,51.3h98.2
			c7.1-0.3,12.6-6.3,12.3-13.3c-0.3-6.7-5.6-12-12.3-12.3H51.3c-14.2,0-25.7-11.5-25.7-25.7l0,0V77.5c0-14.2,11.4-25.7,25.6-25.7
			c0,0,0,0,0.1,0h16v12.8C67,71.7,72.5,77.7,79.6,78c7.1,0.3,13.1-5.2,13.3-12.3c0-0.3,0-0.7,0-1V51.8h57.8v12.8
			c0.3,7.1,6.3,12.6,13.3,12.3c6.7-0.3,12-5.6,12.3-12.3V51.8h58.4v12.8c0.3,7.1,6.3,12.6,13.3,12.3c6.7-0.3,12-5.6,12.3-12.3V51.8
			h16.7c14.2,0,25.7,11.5,25.7,25.7l0,0v73.2c-0.3,7.1,5.2,13.1,12.3,13.3c7.1,0.3,13.1-5.2,13.3-12.3c0-0.3,0-0.7,0-1V77.5
			C328.4,49.2,305.4,26.3,277.1,26.2L277.1,26.2z"/>
		<path id="Контур_505" class="st0" d="M250.9,173.7c-42.9,0-77.6,34.8-77.6,77.6S208,329,250.9,329
			c42.9,0,77.6-34.8,77.6-77.6S293.7,173.7,250.9,173.7C250.9,173.7,250.9,173.7,250.9,173.7z M250.9,303.3c-28.7,0-52-23.3-52-52
			s23.3-52,52-52c28.7,0,52,23.3,52,52l0,0C302.8,280.1,279.5,303.3,250.9,303.3z"/>
		<path id="Контур_506" class="st0" d="M269.5,238.5h-5.8v-13.5c0.3-7.1-5.2-13.1-12.3-13.3c-7.1-0.3-13.1,5.2-13.3,12.3
			c0,0.3,0,0.7,0,1v26.3c0,7.1,5.7,12.8,12.8,12.8l0,0h18.6c7.1-0.3,12.6-6.3,12.3-13.3C281.5,244.2,276.1,238.8,269.5,238.5
			L269.5,238.5z"/>
		<circle id="Эллипс_35" class="st0" cx="143.7" cy="184.9" r="16"/>
		<circle id="Эллипс_36" class="st0" cx="79.7" cy="120.9" r="16"/>
		<circle id="Эллипс_37" class="st0" cx="79.7" cy="184.9" r="16"/>
		<circle id="Эллипс_38" class="st0" cx="79.7" cy="249" r="16"/>
		<circle id="Эллипс_39" class="st0" cx="143.7" cy="249" r="16"/>
		<circle id="Эллипс_40" class="st0" cx="143.7" cy="120.9" r="16"/>
	</g>
</g>
</svg>
