<?xml version="1.0" encoding="utf-8"?>
<!-- Generator: Adobe Illustrator 24.3.0, SVG Export Plug-In . SVG Version: 6.00 Build 0)  -->
<svg version="1.1" id="Слой_1" xmlns="http://www.w3.org/2000/svg" xmlns:xlink="http://www.w3.org/1999/xlink" x="0px" y="0px"
	 viewBox="0 0 396 394.4" style="enable-background:new 0 0 396 394.4;" xml:space="preserve">
<g id="Векторный_смарт-объект" transform="translate(9.761 9.723)">
	<path id="Контур_36" d="M223,186.2L377.3,31.9c9.4-9.8,9-25.3-0.8-34.7c-9.7-9.2-24.9-9-34.3,0.4L188.7,151.1L30.3-5.4
		c-10.8-8.1-26.2-5.9-34.3,5c-6.5,8.7-6.5,20.6,0,29.3l157.5,157.3L0.1,339.7c-10.8,8.1-13.1,23.5-5,34.3c8.1,10.8,23.5,13.1,34.3,5
		c1.9-1.4,3.5-3.1,4.9-4.9l154.3-153.5l153.5,154.3c8.1,10.8,23.5,13,34.3,4.8s13-23.5,4.8-34.3c-1.4-1.8-3-3.4-4.8-4.8L223,186.2z"
		/>
</g>
</svg>
