<?xml version="1.0" encoding="utf-8"?>
<!-- Generator: Adobe Illustrator 24.3.0, SVG Export Plug-In . SVG Version: 6.00 Build 0)  -->
<svg version="1.1" id="Слой_1" xmlns="http://www.w3.org/2000/svg" xmlns:xlink="http://www.w3.org/1999/xlink" x="0px" y="0px"
	 viewBox="0 0 257 228.4" style="enable-background:new 0 0 257 228.4;" xml:space="preserve">
<style type="text/css">
	.st0{fill:#205D97;}
</style>
<g>
	<path class="st0" d="M245.8,95.3H242V43.9c0-13.2-10.7-23.8-23.8-23.8H114.8L45,0.1h-0.1h-0.1l-0.1,0l-0.2,0l-0.2,0h-0.2h-0.4h-0.2
		l-0.2,0l-0.1,0l-0.2,0l-0.1,0l-0.2,0.1l-0.1,0l-0.2,0.1l-0.1,0.1l-0.2,0.1L42,0.6l-0.2,0.1l-0.1,0.1l-0.2,0.1L41.4,1l-0.2,0.2
		l-0.1,0.1L41,1.4l-0.1,0.1c0,0.1-0.1,0.1-0.1,0.2l-0.1,0.2c0,0.1-0.1,0.1-0.1,0.2c0,0.1-0.1,0.1-0.1,0.2c0,0.1-0.1,0.1-0.1,0.2
		c0,0.1,0,0.1-0.1,0.2s0,0.1,0,0.1c0,0,0,0,0,0.1v0.1L36,20.1H23.9C10.7,20.1,0.1,30.7,0,43.8c0,0,0,0.1,0,0.1v145.6
		c0,0.2,0,0.5,0,0.7v14.4c0,0,0,0.1,0,0.1c0.1,13.1,10.7,23.7,23.8,23.7h194.3c13.2,0,23.8-10.7,23.9-23.8v-26.4h3.8
		c6.2,0,11.3-5.1,11.3-11.3v-60.2C257.1,100.4,252,95.3,245.8,95.3z M46.7,8.4l66.4,19l44.6,12.7H38.7L46.7,8.4z M23.9,27.5h10.2
		L31,40.1h-7.1c-2.1,0.2-3.6,2-3.4,4.1c0.2,1.8,1.6,3.2,3.4,3.4h189.3c2.1,0.2,3.9-1.3,4.1-3.4c0.2-2.1-1.3-3.9-3.4-4.1
		c-0.2,0-0.5,0-0.7,0h-28.1l-43.9-12.6h77.1c9,0,16.3,7.3,16.3,16.3l0,22.8c-4.4-4.2-10.2-6.5-16.3-6.5H23.9
		c-9,0-16.3-7.3-16.3-16.3C7.5,34.9,14.9,27.5,23.9,27.5z M234.5,204.5c0,9-7.3,16.3-16.3,16.3H23.9c-9,0-16.3-7.3-16.3-16.3
		c0,0,0,0,0-0.1v-15c0,0,0,0,0,0V61.2c4.4,4.2,10.3,6.5,16.3,6.5h194.3c9,0,16.3,7.3,16.3,16.3v26.4h-41.4c-0.1,0-0.2,0-0.3,0
		s-0.2,0-0.4,0.1h-0.1c-0.1,0-0.2,0-0.3,0.1H192l-0.3,0.1l-0.1,0l-0.2,0.1l-0.1,0.1l-0.2,0.1L191,111l-0.1,0.1
		c-0.1,0-0.1,0.1-0.2,0.1l-0.1,0.1c-0.1,0.1-0.1,0.1-0.2,0.2l-0.1,0.1c-0.1,0.1-0.1,0.1-0.1,0.2c0,0.1-0.2,0.2-0.2,0.3l-20.1,30.1
		c-0.1,0.2-0.3,0.4-0.4,0.7c0,0.1-0.1,0.2-0.1,0.3l0,0.1c0,0.1-0.1,0.2-0.1,0.3v0.1c0,0.1,0,0.2,0,0.3c0,0.1,0,0.1,0,0.1
		s0,0.1,0,0.2c0,0.1,0,0.1,0,0.2c0,0.1,0,0.1,0,0.2c0,0.1,0,0.1,0,0.2s0,0.1,0,0.1s0,0.2,0,0.3c0,0.1,0,0,0,0.1c0,0.1,0,0.2,0.1,0.3
		l0,0.1c0,0.1,0.1,0.2,0.1,0.3c0.1,0.2,0.2,0.5,0.4,0.7l20.1,30.1c0.1,0.1,0.2,0.2,0.3,0.3l0.1,0.1c0.1,0.1,0.1,0.1,0.2,0.2l0.1,0.1
		c0.1,0.1,0.1,0.1,0.2,0.2l0.1,0.1c0.1,0.1,0.2,0.1,0.3,0.2l0.1,0c0.1,0,0.2,0.1,0.3,0.1l0.1,0c0.1,0,0.2,0.1,0.3,0.1l0.1,0
		c0.1,0,0.2,0,0.3,0.1h0.1c0.1,0,0.3,0,0.4,0h41.5V204.5z M249.5,166.9c0,2.1-1.7,3.8-3.8,3.8h0h-50.7l-17.6-26.4l17.6-26.4h50.7
		h0.2c1.2,0,2.4-0.2,3.6-0.6V166.9z M246.5,110.4c-0.3,0-0.5,0-0.8,0H242v-7.5h3.8c2.1-0.2,3.9,1.3,4.1,3.4S248.6,110.2,246.5,110.4
		z"/>
	<path class="st0" d="M208.1,130.5c-7.6,0-13.8,6.2-13.8,13.8s6.2,13.8,13.8,13.8c7.6,0,13.8-6.2,13.8-13.8
		C221.9,136.7,215.7,130.5,208.1,130.5z M208.1,150.6c-3.5,0-6.3-2.8-6.3-6.3c0-3.5,2.8-6.3,6.3-6.3s6.3,2.8,6.3,6.3
		C214.4,147.8,211.6,150.6,208.1,150.6z"/>
</g>
</svg>
