<?xml version="1.0" encoding="utf-8"?>
<!-- Generator: Adobe Illustrator 24.3.0, SVG Export Plug-In . SVG Version: 6.00 Build 0)  -->
<svg version="1.1" id="Page-1" xmlns="http://www.w3.org/2000/svg" xmlns:xlink="http://www.w3.org/1999/xlink" x="0px" y="0px"
	 viewBox="0 0 300 300" style="enable-background:new 0 0 300 300;" xml:space="preserve">
<style type="text/css">
	.st0{fill:#205D97;}
</style>
<g id="_135---Upload-File" transform="translate(0 0)">
	<path id="Shape" class="st0" d="M46.6,100.2h46.6c2.9,0,5.2-2.3,5.2-5.2c0-2.9-2.3-5.2-5.2-5.2H46.6c-2.9,0-5.2,2.3-5.2,5.2
		C41.4,97.9,43.7,100.2,46.6,100.2z"/>
	<path id="Shape-2" class="st0" d="M114.4,100.2h41.4c2.9,0,5.2-2.3,5.2-5.2c0-2.9-2.3-5.2-5.2-5.2h-41.4c-2.9,0-5.2,2.3-5.2,5.2
		C109.2,97.9,111.6,100.2,114.4,100.2z"/>
	<path id="Shape-3" class="st0" d="M46.6,125.2h77.6c2.9,0,5.2-2.3,5.2-5.2c0-2.9-2.3-5.2-5.2-5.2H46.6c-2.9,0-5.2,2.3-5.2,5.2
		C41.4,122.9,43.7,125.2,46.6,125.2z"/>
	<path id="Shape-4" class="st0" d="M93.1,139.8H46.6c-2.9,0-5.2,2.3-5.2,5.2s2.3,5.2,5.2,5.2h46.6c2.9,0,5.2-2.3,5.2-5.2
		S96,139.8,93.1,139.8z"/>
	<path id="Shape-5" class="st0" d="M279.9,231.9c2.5-6.4,3.8-13.1,3.8-20c-0.1-22.3-13.4-42.4-33.7-51.3V120h14.8
		c5.5,0,10-4.5,10-10c0-2.2-0.7-4.4-2.1-6.1l-39.8-51.8c-0.8-1-1.8-1.8-2.9-2.4V25c0-13.8-11.2-25-25-25H70c-1.3,0-2.6,0.5-3.5,1.5
		l-65,65C0.5,67.4,0,68.7,0,70v185c0,13.8,11.2,25,25,25h74.1c6.5,12.4,19.4,20.1,33.4,20h130c20.3,0.3,37.1-15.8,37.5-36.1
		C299.9,250.3,292.1,237.9,279.9,231.9z M264.8,110H250c-5.5,0-10,4.5-10,10v105h-30V120c0-5.5-4.5-10-10-10h-14.8L225,58.2
		L264.8,110z M65,17.1V50c0,8.3-6.7,15-15,15H17.1L65,17.1z M10,255V75h40c13.8,0,25-11.2,25-25V10h130c8.3,0,15,6.7,15,15
		c0,0,0,0,0,0v24.7c-1.1,0.6-2.1,1.4-2.9,2.4l-39.8,51.8c-3.4,4.4-2.6,10.7,1.8,14c1.7,1.3,3.9,2.1,6.1,2.1H200v40.2
		c-10.1,4.4-18.8,11.7-25.1,20.8c-6.4-3.4-13.6-5.3-20.8-5.2c-23.2-0.4-42.4,18.1-42.9,41.3c0,5.2,1,10.4,3,15.2
		c-11.7,6.2-19.1,18.3-19.3,31.6c0,2.1,0.2,4.1,0.6,6.1H25C16.7,270,10,263.3,10,255L10,255L10,255z M262.5,290h-130
		c-11.2,0.1-21.4-6.6-25.7-16.9c-1.2-2.9-1.8-6.1-1.8-9.3c0.1-11.1,7.2-20.9,17.7-24.4c2.6-0.9,3.9-3.8,3-6.4
		c-0.1-0.3-0.2-0.5-0.4-0.8c-2.7-4.6-4.1-9.8-4.1-15.2c0.5-17.7,15.2-31.7,32.9-31.3c7,0,13.9,2.2,19.6,6.2c1.2,0.8,2.6,1.1,4,0.8
		c1.4-0.3,2.6-1.2,3.2-2.5c4.4-8,11-14.5,19-18.9V225c0,5.5,4.5,10,10,10c0,0,0,0,0,0h30c5.5,0,10-4.5,10-10l0,0v-53.2
		c14.6,8.1,23.6,23.4,23.8,40.1c0,7.1-1.7,14-4.9,20.4c-1.2,2.5-0.3,5.5,2.2,6.7c0.2,0.1,0.4,0.2,0.7,0.3
		c10.7,3.4,18.1,13.3,18.3,24.6C289.6,278.6,277.3,290.3,262.5,290L262.5,290z"/>
</g>
</svg>
