<?xml version="1.0" encoding="utf-8"?>
<!-- Generator: Adobe Illustrator 24.3.0, SVG Export Plug-In . SVG Version: 6.00 Build 0)  -->
<svg version="1.1" id="Слой_1" xmlns="http://www.w3.org/2000/svg" xmlns:xlink="http://www.w3.org/1999/xlink" x="0px" y="0px"
	 viewBox="0 0 357 377.1" style="enable-background:new 0 0 357 377.1;" xml:space="preserve">
<style type="text/css">
	.st0{fill:#81AEDA;}
</style>
<path class="st0" d="M303.2,139.7H288l-0.1-45.6c-5.1-56-55.2-98-108.1-93.9C123.5-3.7,74,38.1,68.9,95.8v44H53.7
	c-0.1,0-0.3,0-0.4,0c-14.5,0.2-27.9,6.1-38,16.4C5.2,166.5-0.2,180.2,0,194.3v128.1c-0.2,14.4,5.3,28.1,15.4,38.4
	C25.5,371.2,39,377,53.7,377.1h249.9c29.8-0.5,53.7-25.1,53.3-54.6V194.4C357.2,164.6,333.1,140.1,303.2,139.7z M104.8,97.4
	c3.3-36.5,35.6-63.8,75-61.1c36.6-2.3,68.9,24.7,72.1,59.5v44h-147L104.8,97.4z M320.8,322.8c0.1,9.9-7.9,18.2-17.6,18.3H53.9
	c-4.8,0-9.3-2-12.7-5.4c-3.4-3.5-5.2-8-5.1-13.1V194.1c-0.1-4.8,1.7-9.4,5.1-12.8c3.3-3.5,7.9-5.4,12.4-5.5H303
	c9.9,0.1,17.9,8.3,17.8,18.6V322.8z"/>
</svg>
