<svg id="Layer_1" data-name="Layer 1" xmlns="http://www.w3.org/2000/svg" viewBox="0 0 28.55 37.31"><title>finances</title><g id="finances"><path id="Контур_32" data-name="Контур 32" d="M14.19,22.17a1.17,1.17,0,0,1,1.24.95c.08.62.34,1.09.94,1.09a1,1,0,0,0,1-1s0-.06,0-.09A3.07,3.07,0,0,0,15,20.32V19c0-.6-.2-1.1-.8-1.1s-.8.49-.8,1.1v1.3a3.09,3.09,0,0,0-2.2,3,3.18,3.18,0,0,0,3,3.28c.6.06,1.42.35,1.39,1.23A1.3,1.3,0,0,1,14.22,29h0A1.26,1.26,0,0,1,13,27.92c0-.62-.34-1.09-.94-1.09a1,1,0,0,0-1,1s0,.07,0,.1a3.11,3.11,0,0,0,2.2,2.95v.95a.95.95,0,1,0,1.89,0v-1a3.26,3.26,0,0,0,2.17-3.09,3,3,0,0,0-3-3.06h-.19a1.51,1.51,0,0,1-1.23-1.39A1.37,1.37,0,0,1,14.19,22.17Z" transform="translate(0 0)"/><path id="Контур_33" data-name="Контур 33" d="M23.13,15.84l-.06-.06-.07,0a13.79,13.79,0,0,0-1.92-1.39,3.27,3.27,0,0,0,.84-2.18,3.07,3.07,0,0,0-1.87-2.82l1.82-5.73a1.12,1.12,0,0,0-.15-1,1.1,1.1,0,0,0-.88-.45H17.37a3.28,3.28,0,0,0-6.18,0H7.72a1.06,1.06,0,0,0-.88.45,1.1,1.1,0,0,0-.15,1L8.51,9.35a3,3,0,0,0-1.88,2.81,3.27,3.27,0,0,0,.84,2.19A15.59,15.59,0,0,0,0,27.46c0,3.76,1.5,6.47,4.45,8,2.28,1.21,5.4,1.78,9.83,1.78a24.07,24.07,0,0,0,8.42-1.16l1.4-.62c2.95-1.58,4.45-4.29,4.45-8A15.56,15.56,0,0,0,23.13,15.84ZM11.8,3.86a1.09,1.09,0,0,0,1.09-1.09h0c0-.6.78-1.1,1.39-1.1a1.24,1.24,0,0,1,1.24,1.1V5A1,1,0,0,0,16.32,6a1,1,0,0,0,1.09-.81,1.31,1.31,0,0,0,0-.28V3.86h2.64L18.36,9.18H10.19L8.5,3.86ZM9.4,10.78h9.76c.6,0,1.09.78,1.09,1.38s-.49,1.46-1.09,1.46H9.4c-.6,0-1.09-.85-1.09-1.46S8.79,10.78,9.4,10.78ZM23.57,33.59l-1.14.5a23.89,23.89,0,0,1-8.15,1.53,20.46,20.46,0,0,1-9.3-2c-2.26-1.22-3.3-3.16-3.3-6.13A13.46,13.46,0,0,1,9.61,15.3h9.33l.08,0,.18.07.1,0,.25.12h0a12.91,12.91,0,0,1,3.8,3h0a13.27,13.27,0,0,1,3.52,8.83C26.87,30.43,25.82,32.38,23.57,33.59Z" transform="translate(0 0)"/></g></svg>